<svg width="74" height="74" viewBox="0 0 74 74" fill="none" xmlns="http://www.w3.org/2000/svg">
<circle cx="36.75" cy="36.75" r="36.75" fill="#F9FBF2"/>
<mask id="mask0_14_1266" style="mask-type:luminance" maskUnits="userSpaceOnUse" x="0" y="0" width="57" height="61">
<path d="M0 0H56.3281V60.2708H0V0Z" fill="white"/>
</mask>
<g mask="url(#mask0_14_1266)">
<path d="M37.7708 9.8021L49.4895 9.22398L48.6145 10.6719C48.6145 10.724 48.6197 10.7761 48.6302 10.8229C48.7083 11.099 49.0052 11.375 49.5364 11.6615C50.4218 12.1406 50.9635 12.6459 51.3541 13.375L52.4062 13.9219L51.7916 14.8073L50.7187 14.8438L50.8333 13.5313C50.4947 12.9479 50.0312 12.5417 49.2812 12.1302C48.9375 11.9427 48.4947 11.6615 48.2552 11.2656L47.2239 12.974L47.4531 13.3542C48.9687 14.6198 49.9322 16.5209 49.9322 18.6511C49.9322 22.4636 46.8437 25.5469 43.0364 25.5469C39.6614 25.5469 36.8593 23.125 36.2604 19.9271L36.0833 19.625L31.7083 19.8438L37.7708 9.8021ZM16.4218 21.7448C16.4218 21.7448 35.302 30.9844 46.2552 28.1667L44.875 37.8334L47.6302 42.2813L50.3906 37.4479L47.9791 27.5938C48.4479 27.3959 48.8906 27.1771 49.3177 26.9219C52.9375 24.7344 54.625 21.6042 55.2083 18.3021C56.7239 9.79169 50.7604 1.74481 42.2135 0.421895C40.3854 0.140646 38.5104 -0.00518799 36.6041 -0.00518799C16.5572 -0.00518799 0.359332 15.9844 0.11454 36.0313C0.0572477 41.0104 0.994748 45.7656 2.73954 50.1042C9.94267 67.9896 37.0625 58.2448 31.1041 39.9115C28.4947 31.8959 21.75 26.5625 16.4218 21.7448Z" fill="#299AD1"/>
</g>
<mask id="mask1_14_1266" style="mask-type:luminance" maskUnits="userSpaceOnUse" x="26" y="4" width="47" height="69">
<path d="M26.9946 4.27087H72.9998V73H26.9946V4.27087Z" fill="white"/>
</mask>
<g mask="url(#mask1_14_1266)">
<path d="M54.1978 4.51044C57.3019 8.59898 62.3384 17.1667 60.4113 27.8959C56.7082 48.5677 38.88 63.9948 27.6353 71.8646C30.505 72.5886 33.5103 72.974 36.604 72.974C56.755 72.974 73.0936 56.6354 73.0936 36.4844C73.0936 22.7136 65.4634 10.724 54.1978 4.51044Z" fill="#2B2D42"/>
</g>
</svg>
