<svg width="277" height="54" viewBox="0 0 277 54" fill="none" xmlns="http://www.w3.org/2000/svg">
<path d="M67.2587 11.8742C68.1018 11.7289 69.3518 11.6562 71.0088 11.6562C71.1432 11.6562 71.2631 11.6562 71.3722 11.6562C76.6121 11.6562 79.9551 13.1024 81.4014 15.9877C81.8956 16.9106 82.1863 17.8554 82.2735 18.822C82.3607 19.7813 82.4043 20.4899 82.4043 20.9441C82.4043 21.8671 82.3171 22.7465 82.1427 23.5895C81.4341 26.9326 79.57 29.1129 76.5467 30.1303C75.8381 30.3447 75.4711 30.4719 75.442 30.5083C75.442 30.7517 77.0409 33.1246 80.2386 37.6305C81.4668 39.3565 82.2444 40.5012 82.5642 41.0608C82.844 41.5186 82.9857 41.7984 82.9857 41.9038C82.9857 42.0128 82.8985 42.1727 82.7241 42.3835C82.0845 43.0521 81.0417 43.5281 79.599 43.8079C79.1812 43.8733 78.7778 43.9096 78.3926 43.9096C77.2298 43.9096 76.2778 43.5572 75.5437 42.8486C75.184 42.4997 74.8315 42.0346 74.4827 41.4532C74.1338 40.8718 73.2036 39.2112 71.6919 36.4677C71.5175 36.1479 71.2704 35.7082 70.9506 35.145C69.8932 33.1791 69.25 32.0308 69.0175 31.7001C68.7922 31.3622 68.5741 31.1914 68.3634 31.1914C68.2943 31.1914 68.2398 31.1914 68.2035 31.1914C67.8837 31.1914 67.375 31.1587 66.6773 31.0897L65.718 30.9298V35.6682C65.718 38.7715 65.6489 40.6211 65.5145 41.2206C65.3401 41.7439 64.9949 42.2635 64.4825 42.7759C63.9665 43.281 63.4287 43.6262 62.8691 43.8079C62.4803 43.9133 62.2005 43.9678 62.0261 43.9678C61.8516 43.9678 61.59 43.8588 61.2412 43.648C60.8124 43.4372 60.3872 43.0593 59.9621 42.5143C59.5442 41.9619 59.2499 41.406 59.0754 40.8427C58.901 40.2541 58.8138 35.8063 58.8138 27.4995C58.8138 21.4819 58.792 17.8482 58.7557 16.5981C58.7266 15.3481 58.603 14.4251 58.3923 13.8219C58.1779 13.2623 58.0725 12.8917 58.0725 12.7173C58.0725 12.6518 58.0907 12.5973 58.1307 12.5574C58.2651 12.452 59.6169 12.3466 62.186 12.2376C64.7914 12.0632 66.4811 11.9433 67.2587 11.8742ZM73.6978 18.1534C73.0582 17.8336 71.8264 17.6737 70.0059 17.6737C69.8205 17.6737 69.1483 17.6846 67.9855 17.7028C66.8299 17.7246 66.1468 17.9063 65.936 18.2551C65.7907 18.4296 65.718 19.7523 65.718 22.2232V25.9152L68.1018 25.7553C70.8816 25.5808 72.7603 25.2247 73.7414 24.6797C74.7298 24.1273 75.2748 23.1317 75.3839 21.6854C75.3839 21.551 75.3839 21.4093 75.3839 21.2639C75.3839 19.7523 74.8206 18.7166 73.6978 18.1534Z" fill="#F9FBF2"/>
<path d="M92.6382 20.6389C93.5176 20.4936 94.3607 20.4209 95.1674 20.4209C95.7669 20.4209 96.3665 20.4572 96.9697 20.5226C99.953 20.9878 102.046 22.4122 103.249 24.796C104.092 26.4166 104.513 27.9138 104.513 29.2873C104.513 29.5708 104.448 30.1812 104.324 31.1188C104.197 32.049 103.503 32.7104 102.246 33.0955C100.869 33.5134 98.0344 33.7205 93.7429 33.7205H90.1527L90.3708 34.8252C90.5452 35.5338 90.7196 36.0462 90.894 36.3659C91.0685 36.6784 91.381 37.0273 91.8388 37.4125C92.7582 38.2555 93.9391 38.677 95.3854 38.677C95.6252 38.677 95.8868 38.6625 96.1703 38.6334C97.9617 38.4227 99.6333 37.6814 101.185 36.4095L102.667 35.2031L103.089 35.8281C103.474 36.5367 103.67 37.2598 103.67 37.9939C103.67 38.1392 103.649 38.459 103.612 38.9532C103.572 39.4401 103.238 39.9997 102.609 40.6393C101.552 41.8311 100.215 42.6233 98.5976 43.0085C96.977 43.3973 95.5889 43.5899 94.4261 43.5899C93.5431 43.5899 92.3621 43.4591 90.8795 43.1974C89.4042 42.9358 88.1251 42.2381 87.0422 41.1044C85.8394 39.9525 85.0364 38.568 84.6294 36.9473C84.2297 35.3303 84.0334 33.8659 84.0334 32.5577C84.0334 31.7547 84.0843 30.9298 84.1933 30.0868C84.5422 27.8702 85.2435 26.0169 86.3009 24.5343C87.7835 22.4231 89.8947 21.1259 92.6382 20.6389ZM97.275 26.0751C96.8171 25.7553 96.0831 25.5772 95.0656 25.5373C94.8912 25.5373 94.7313 25.5373 94.586 25.5373C93.9827 25.5373 93.4813 25.6027 93.0743 25.7262C92.6746 25.8534 92.2494 26.1259 91.7952 26.5402C91.5118 26.8236 91.192 27.3178 90.8359 28.0228C90.487 28.7314 90.3126 29.2401 90.3126 29.549C90.3126 29.7634 90.3344 29.8905 90.3853 29.9269C90.4434 29.9559 90.5052 29.9705 90.5743 29.9705C90.6397 29.9705 90.7487 29.9559 90.894 29.9269C91.668 29.7815 93.7611 29.5708 97.1732 29.2873C97.9072 29.2219 98.3542 29.1638 98.5104 29.1129C98.674 29.0548 98.7575 28.9058 98.7575 28.6623C98.7575 28.2771 98.5976 27.8193 98.2779 27.296C97.9654 26.7655 97.6311 26.3585 97.275 26.0751Z" fill="#F9FBF2"/>
<path d="M111.841 20.479C112.575 20.3046 113.676 20.2174 115.141 20.2174C116.602 20.2174 117.735 20.3046 118.542 20.479C119.356 20.6934 120.112 20.9696 120.809 21.3075C121.514 21.6382 121.976 21.958 122.19 22.2669C122.394 22.5866 122.496 22.9573 122.496 23.3715C122.496 23.655 122.423 24.0838 122.278 24.6652C122.139 25.2466 121.776 25.8062 121.187 26.3367L120.708 26.8018L119.865 26.2786C118.953 25.6499 118.037 25.2393 117.118 25.0431C116.205 24.8505 115.504 24.7524 115.01 24.7524C114.552 24.7524 114.145 24.8069 113.789 24.9123C113.011 25.1557 112.626 25.719 112.626 26.5983C112.626 27.0562 112.844 27.4523 113.28 27.7902C113.724 28.1209 114.53 28.4806 115.693 28.8658C118.124 29.6798 119.85 30.3993 120.868 31.017C121.885 31.6275 122.619 32.4087 123.077 33.3572C123.462 34.1348 123.658 35.0977 123.658 36.2497C123.658 37.278 123.528 38.1174 123.266 38.7642C123.004 39.4147 122.517 40.1451 121.812 40.959C120.406 42.5397 118.927 43.4155 117.379 43.5899C115.838 43.7643 114.799 43.8515 114.269 43.8515C112.299 43.8515 110.402 43.4118 108.571 42.5288C106.565 41.5513 105.562 40.3413 105.562 38.8951C105.562 38.6843 105.58 38.4554 105.62 38.2119C105.715 37.6814 105.871 37.1508 106.085 36.6276C106.296 36.097 106.478 35.8281 106.623 35.8281C106.718 35.8281 107.335 36.1842 108.469 36.8892C109.912 37.8013 111.151 38.3827 112.19 38.6334C113.226 38.8769 114.007 38.9968 114.53 38.9968C115.17 38.9968 115.697 38.8769 116.115 38.6334C116.434 38.459 116.652 38.2664 116.769 38.052C116.892 37.8413 116.958 37.4851 116.958 36.9909C116.958 36.4968 116.711 36.0752 116.216 35.7264C115.729 35.3775 114.767 34.9379 113.324 34.4037C110.958 33.5607 109.269 32.7721 108.251 32.0345C107.088 31.1551 106.311 29.9378 105.926 28.3862C105.787 27.9029 105.722 27.4268 105.722 26.9617C105.722 25.8098 106.205 24.5888 107.176 23.2989C108.142 22.0125 109.697 21.0713 111.841 20.479Z" fill="#F9FBF2"/>
<path d="M136.17 20.5808C136.839 20.4064 137.507 20.3192 138.176 20.3192C138.844 20.3192 139.666 20.4463 140.647 20.6971C141.635 20.9405 142.587 21.4638 143.51 22.2669C145.196 23.7785 146.232 26.0133 146.621 28.9676C146.726 29.6761 146.781 30.3629 146.781 31.0315C146.781 33.0011 146.286 35.0069 145.298 37.0491C144.31 39.084 142.798 40.4903 140.763 41.2643C139.531 41.7294 138.14 41.962 136.592 41.962C135.04 41.962 133.79 41.7149 132.841 41.2207L131.78 40.6829L131.737 42.587C131.737 47.478 131.508 50.3996 131.054 51.3517C130.519 52.4345 129.963 52.9978 129.382 53.0377C128.801 53.0741 128.474 53.0959 128.408 53.0959C127.391 53.0959 126.58 52.6017 125.981 51.6133C125.563 50.9047 125.334 50.1925 125.298 49.4766C125.258 48.7571 125.24 48.0994 125.24 47.4998C125.24 44.8908 125.29 41.6931 125.399 37.8921C125.465 34.8325 125.501 32.2779 125.501 30.2321C125.501 28.8658 125.476 27.3832 125.429 25.7844C125.378 24.1782 125.196 22.8483 124.876 21.8017C124.767 21.482 124.716 21.2167 124.716 21.0023C124.716 20.8679 124.749 20.7806 124.818 20.7407C124.963 20.6753 125.632 20.6026 126.824 20.5226C127.075 20.5226 127.322 20.5226 127.565 20.5226C129.222 20.5226 130.505 20.8242 131.417 21.4238L132.216 21.9471L133.583 21.4238C134.386 21.075 135.247 20.7952 136.17 20.5808ZM138.176 26.7001C137.642 26.4203 136.973 26.2786 136.17 26.2786C136.101 26.2786 136.014 26.2786 135.908 26.2786C135.16 26.2786 134.389 26.4057 133.597 26.6565C132.812 26.8999 132.351 27.1616 132.216 27.4414C132.107 27.6558 132.002 29.0475 131.897 31.6129L131.737 35.4648L132.362 35.9444C133.03 36.4023 133.699 36.693 134.368 36.8165C135.036 36.9328 135.53 36.9909 135.85 36.9909C136.381 36.9909 136.857 36.9037 137.275 36.7293C138.292 36.3441 139.019 35.6174 139.455 34.549C139.898 33.4734 140.124 32.4415 140.124 31.4531C140.124 30.9988 140.087 30.5228 140.022 30.0286C139.876 29.1202 139.662 28.4152 139.382 27.921C139.099 27.4268 138.699 27.0198 138.176 26.7001Z" fill="#F9FBF2"/>
<path d="M154.892 20.6825C155.811 20.5081 156.814 20.4209 157.901 20.4209C157.977 20.4209 158.05 20.4209 158.119 20.4209C161.142 20.4209 163.526 21.2857 165.27 23.0082C167.014 24.7342 167.974 27.2669 168.148 30.61C168.148 30.8935 168.148 31.1733 168.148 31.4531C168.148 33.4589 167.832 35.3412 167.203 37.0927C166.709 38.3354 165.87 39.5346 164.689 40.6974C163.504 41.8529 162.298 42.6415 161.07 43.0666C160.292 43.3501 159.387 43.5172 158.351 43.5754C157.312 43.6262 156.567 43.648 156.113 43.648C155.23 43.648 154.507 43.5972 153.947 43.4882C151.447 42.9576 149.59 41.7149 148.38 39.7672C147.167 37.8122 146.563 35.443 146.563 32.6595C146.563 32.2816 146.578 31.9 146.607 31.5112C146.752 28.9458 147.352 26.8127 148.409 25.1157C149.078 24.0619 149.997 23.1317 151.171 22.325C152.352 21.511 153.591 20.966 154.892 20.6825ZM159.064 26.4966C158.5 26.2459 157.937 26.1187 157.378 26.1187C156.745 26.1187 156.113 26.2786 155.474 26.5983C154.63 27.0162 154.024 27.6521 153.657 28.5024C153.286 29.3455 153.082 30.5228 153.046 32.0345C153.046 33.4117 153.206 34.4473 153.526 35.145C153.98 36.1334 154.532 36.842 155.183 37.2671C155.841 37.685 156.698 37.8921 157.756 37.8921C158.907 37.8921 159.783 37.5506 160.386 36.8601C160.986 36.1733 161.393 35.0578 161.607 33.5171C161.673 32.9865 161.709 32.456 161.709 31.9327C161.709 31.1587 161.6 30.2975 161.389 29.3455C161.175 28.3971 160.786 27.6558 160.226 27.1216C160.012 26.9108 159.623 26.7001 159.064 26.4966Z" fill="#F9FBF2"/>
<path d="M179.971 20.5808C180.559 20.4354 181.279 20.3627 182.122 20.3627C182.304 20.3627 182.722 20.3736 183.372 20.3918C184.019 20.4136 184.698 20.5481 185.407 20.7988C186.076 21.0422 186.81 21.551 187.616 22.325C188.496 23.208 189.033 24.0547 189.23 24.8686C189.422 25.6753 189.52 27.4123 189.52 30.0867C189.549 34.2365 189.6 37.0636 189.68 38.5753C189.709 39.3892 189.724 40.0578 189.724 40.5811C189.724 41.0753 189.702 41.4496 189.666 41.7003C189.637 41.9438 189.48 42.2054 189.201 42.4852C188.423 43.3282 187.369 43.8006 186.032 43.9096C185.894 43.9096 185.756 43.9096 185.61 43.9096C184.419 43.9096 183.503 43.35 182.863 42.2236C182.649 41.7984 182.518 41.2715 182.471 40.6392C182.42 39.9997 182.376 38.1901 182.34 35.2031C182.34 31.8891 182.311 29.8542 182.253 29.0983C182.202 28.3425 182.111 27.8265 181.977 27.5431C181.722 27.1288 181.457 26.8309 181.177 26.6564C180.934 26.5111 180.512 26.4384 179.913 26.4384C179.804 26.4384 179.527 26.4493 179.084 26.4675C178.648 26.4893 178.219 26.5838 177.805 26.7582C177.765 26.7873 177.725 26.8018 177.689 26.8018C177.02 27.1216 176.62 27.5649 176.497 28.1245C176.381 28.6877 176.286 30.7263 176.221 34.2438C176.221 34.5636 176.221 34.8107 176.221 34.9851C176.141 39.1712 176.017 41.4605 175.843 41.8457C175.559 42.4852 175.138 43.0085 174.578 43.4154C174.015 43.8115 173.401 44.0114 172.732 44.0114C172.024 44.0114 171.337 43.7316 170.668 43.1684C170 42.6087 169.524 41.9583 169.244 41.2206C169.175 40.8645 169.142 39.5418 169.142 37.2526C169.142 36.4895 169.142 35.6101 169.142 34.6217C169.142 33.6733 169.142 32.7903 169.142 31.9763C169.142 27.2306 168.895 24.011 168.401 22.325L168.037 21.104L169.099 20.9005C169.767 20.7261 170.523 20.6389 171.366 20.6389C171.5 20.6389 171.642 20.6389 171.788 20.6389C173.51 20.6389 174.796 21.0422 175.639 21.8453L176.163 22.325L177.485 21.6418C178.328 21.1767 179.157 20.8242 179.971 20.5808Z" fill="#F9FBF2"/>
<path d="M205.925 9.4905C206.35 9.46143 206.772 9.4469 207.19 9.4469C208.004 9.4469 208.92 9.55591 209.937 9.76667C210.954 9.97016 211.743 10.319 212.306 10.8132C212.771 11.202 213.026 11.4927 213.077 11.6853C213.124 11.8815 213.149 12.0305 213.149 12.1359C213.149 12.3794 213.062 12.7318 212.888 13.197C212.713 13.6548 212.604 14.6214 212.568 16.104C212.539 17.5793 212.502 21.5329 212.466 27.9647C212.466 34.4764 212.444 38.4299 212.408 39.8253C212.379 41.2134 212.277 42.0637 212.103 42.3835C211.819 42.8414 211.405 43.2084 210.853 43.4882C210.308 43.768 209.842 43.9097 209.457 43.9097C209.319 43.9097 209.112 43.8806 208.832 43.8225C208.549 43.7716 208.142 43.5754 207.611 43.2265C207.088 42.8704 206.699 42.4962 206.449 42.1073L206.085 41.4823L205.722 41.9038C205.536 42.1473 204.937 42.5361 203.919 43.0667C202.408 43.8007 200.947 44.1713 199.544 44.1713C198.273 44.1713 196.714 43.7062 194.864 42.776C193.022 41.8457 191.768 39.7963 191.099 36.6276C190.885 35.6101 190.78 34.5345 190.78 33.4008C190.78 32.8412 190.831 31.9727 190.94 30.799C191.045 29.618 191.379 28.4443 191.942 27.2815C192.328 26.5075 193.004 25.639 193.963 24.6797C194.929 23.7131 195.787 23.0481 196.536 22.6884C197.727 22.1288 198.763 21.8308 199.646 21.8018C200.525 21.7654 201.056 21.7436 201.23 21.7436C202.528 21.7436 203.618 21.9398 204.501 22.325C205.129 22.6085 205.482 22.7465 205.562 22.7465C205.591 22.7465 205.605 21.9725 205.605 20.4209C205.605 19.6469 205.605 18.6767 205.605 17.5139C205.536 15.2282 205.475 13.7166 205.417 12.9789C205.366 12.2449 205.257 11.5945 205.082 11.0312C204.908 10.4716 204.821 10.101 204.821 9.92656C204.821 9.85025 204.835 9.76667 204.864 9.67946C204.901 9.59225 205.257 9.53048 205.925 9.4905ZM204.559 27.8048C203.85 27.5649 203.109 27.4414 202.335 27.4414C202.295 27.4414 202.048 27.4523 201.594 27.4705C201.136 27.4923 200.649 27.6231 200.126 27.8629C199.203 28.2917 198.52 28.9603 198.076 29.8688C197.64 30.7808 197.422 31.8019 197.422 32.9357C197.422 33.1101 197.422 33.2845 197.422 33.4589C197.499 34.9052 197.873 36.0389 198.541 36.8602C199.21 37.685 200.104 38.1683 201.23 38.3137C201.405 38.3536 201.579 38.3718 201.754 38.3718C202.847 38.3718 203.883 37.8776 204.864 36.8892L205.605 36.1043V28.1245L204.559 27.8048Z" fill="#F9FBF2"/>
<path d="M222.813 20.6389C223.692 20.4936 224.535 20.4209 225.342 20.4209C225.941 20.4209 226.541 20.4572 227.144 20.5226C230.128 20.9878 232.221 22.4122 233.423 24.796C234.266 26.4166 234.688 27.9138 234.688 29.2873C234.688 29.5708 234.623 30.1812 234.499 31.1188C234.372 32.049 233.678 32.7104 232.421 33.0955C231.043 33.5134 228.209 33.7205 223.917 33.7205H220.327L220.545 34.8252C220.72 35.5338 220.894 36.0462 221.069 36.3659C221.243 36.6784 221.556 37.0273 222.013 37.4125C222.933 38.2555 224.114 38.677 225.56 38.677C225.8 38.677 226.061 38.6625 226.345 38.6334C228.136 38.4227 229.808 37.6814 231.359 36.4095L232.842 35.2031L233.264 35.8281C233.649 36.5367 233.845 37.2598 233.845 37.9939C233.845 38.1392 233.823 38.459 233.787 38.9532C233.747 39.4401 233.413 39.9997 232.784 40.6393C231.726 41.8311 230.389 42.6233 228.772 43.0085C227.152 43.3973 225.763 43.5899 224.601 43.5899C223.718 43.5899 222.537 43.4591 221.054 43.1974C219.579 42.9358 218.3 42.2381 217.217 41.1044C216.014 39.9525 215.211 38.568 214.804 36.9473C214.404 35.3303 214.208 33.8659 214.208 32.5577C214.208 31.7547 214.259 30.9298 214.368 30.0868C214.717 27.8702 215.418 26.0169 216.475 24.5343C217.958 22.4231 220.069 21.1259 222.813 20.6389ZM227.45 26.0751C226.992 25.7553 226.258 25.5772 225.24 25.5373C225.066 25.5373 224.906 25.5373 224.761 25.5373C224.157 25.5373 223.656 25.6027 223.249 25.7262C222.849 25.8534 222.424 26.1259 221.97 26.5402C221.686 26.8236 221.367 27.3178 221.01 28.0228C220.662 28.7314 220.487 29.2401 220.487 29.549C220.487 29.7634 220.509 29.8905 220.56 29.9269C220.618 29.9559 220.68 29.9705 220.749 29.9705C220.814 29.9705 220.923 29.9559 221.069 29.9269C221.843 29.7815 223.936 29.5708 227.348 29.2873C228.082 29.2219 228.529 29.1638 228.685 29.1129C228.849 29.0548 228.932 28.9058 228.932 28.6623C228.932 28.2771 228.772 27.8193 228.452 27.296C228.14 26.7655 227.806 26.3585 227.45 26.0751Z" fill="#F9FBF2"/>
<path d="M248.092 12.2376C248.477 12.1032 249.007 12.0341 249.676 12.0341C249.741 12.0341 249.996 12.045 250.432 12.0632C250.875 12.0741 251.289 12.1722 251.667 12.3539C252.161 12.5574 252.557 12.899 252.859 13.3714C253.157 13.8474 253.52 14.7377 253.949 16.0458C254.403 17.3467 255.755 21.0459 258.005 27.1507C260.261 33.2554 261.813 37.4197 262.656 39.6363L263.819 42.6451L263.339 43.0085C262.881 43.3973 262.002 43.5899 260.694 43.5899C260.305 43.5899 259.901 43.5717 259.487 43.5317C258.15 43.4373 257.205 43.0739 256.653 42.4416C256.108 41.8021 255.504 40.3413 254.836 38.052L254.153 35.7264L244.705 35.8281L243.862 38.3136C243.23 39.9997 242.83 41.039 242.655 41.4242C242.401 41.882 242.063 42.2963 241.638 42.6742C241.22 43.0448 240.817 43.281 240.432 43.3864C239.974 43.5245 239.327 43.5899 238.484 43.5899C238.375 43.5899 238.041 43.5826 237.481 43.5608C236.918 43.5426 236.423 43.4445 235.998 43.2701L235.315 43.0085L235.679 41.9038C235.715 41.7984 235.824 41.5077 235.998 41.0317C236.173 40.5593 236.365 40.0506 236.58 39.5055C236.791 38.9532 236.987 38.4517 237.161 37.9939C238.004 35.7482 239.025 32.972 240.228 29.6652C241.351 26.4602 242.474 23.4115 243.6 20.5226C244.48 18.3133 245.076 16.5763 245.388 15.3045C245.668 14.2108 245.882 13.5603 246.028 13.3568C246.376 12.9317 247.063 12.5574 248.092 12.2376ZM252.103 30.4501C252.103 30.4501 252.103 30.432 252.103 30.392C252.103 30.0068 251.674 28.4588 250.824 25.7553L249.4 21.2203L247.932 25.6535C246.943 28.5715 246.427 30.1376 246.391 30.3484C246.391 30.5228 247.307 30.61 249.138 30.61C250.97 30.61 251.958 30.5591 252.103 30.4501Z" fill="#F9FBF2"/>
<path d="M272.087 8.96722C272.407 8.90182 272.727 8.86548 273.046 8.86548C273.646 8.86548 274.26 9.0072 274.892 9.287C275.492 9.57043 275.99 9.93744 276.39 10.3917C276.797 10.8495 277 11.2565 277 11.6126C277 12.1759 276.172 13.0916 274.514 14.3598C272.865 15.6207 271.426 16.431 270.198 16.7871C269.558 16.9906 268.926 17.1142 268.308 17.1505C267.698 17.1905 267.283 17.2086 267.073 17.2086C266.549 17.2086 266.251 17.1578 266.186 17.0488C266.186 17.0488 266.186 17.0306 266.186 16.9906C266.186 16.8162 266.466 16.2457 267.029 15.2755C267.589 14.3089 268.224 13.3132 268.933 12.2958C270.27 10.2899 271.32 9.18162 272.087 8.96722ZM265.285 20.5808C265.808 20.4754 266.724 20.4027 268.032 20.3628C269.115 20.3628 269.921 20.4572 270.445 20.6389C270.975 20.8134 271.437 21.1295 271.825 21.5837C272.036 21.8272 272.153 22.0452 272.174 22.2378C272.193 22.434 272.203 22.6012 272.203 22.7465C272.203 23.1644 272.163 23.9529 272.087 25.1158C272.018 26.8127 271.931 30.3484 271.825 35.7264C271.756 38.6843 271.695 40.4721 271.637 41.0899C271.586 41.7003 271.455 42.1655 271.244 42.4852C270.786 43.0884 270.288 43.4591 269.747 43.6044C269.202 43.7425 268.791 43.8079 268.511 43.8079C268.017 43.8079 267.556 43.7026 267.131 43.4882C266.673 43.2374 266.251 42.7977 265.866 42.1655L265.285 41.2207V33.299C265.285 28.5897 265.263 25.7517 265.227 24.7814C265.197 23.8149 265.074 22.9755 264.863 22.2669L264.442 20.7988L265.285 20.5808Z" fill="#F9FBF2"/>
<mask id="mask0_3_487" style="mask-type:luminance" maskUnits="userSpaceOnUse" x="0" y="0" width="40" height="43">
<path d="M0 0H39.2994V42.0501H0V0Z" fill="white"/>
</mask>
<g mask="url(#mask0_3_487)">
<path d="M26.3521 6.83881L34.5281 6.43546L33.9176 7.44565C33.9176 7.48199 33.9213 7.51833 33.9285 7.55103C33.983 7.74362 34.1902 7.93621 34.5608 8.13607C35.1786 8.47038 35.5565 8.82286 35.829 9.33159L36.563 9.71313L36.1342 10.3309L35.3857 10.3563L35.4656 9.4406C35.2294 9.03362 34.906 8.75018 34.3828 8.46311C34.1429 8.3323 33.8341 8.13607 33.6669 7.8599L32.9474 9.05178L33.1073 9.31705C34.1647 10.2001 34.837 11.5264 34.837 13.0126C34.837 15.6725 32.6822 17.8237 30.0259 17.8237C27.6712 17.8237 25.7162 16.134 25.2983 13.9029L25.1748 13.6921L22.1224 13.8447L26.3521 6.83881ZM11.4572 15.1711C11.4572 15.1711 24.6297 21.6174 32.2715 19.6515L31.3086 26.3958L33.2309 29.4991L35.1568 26.1269L33.4743 19.2518C33.8014 19.1137 34.1102 18.9611 34.4082 18.7831C36.9337 17.2569 38.111 15.073 38.518 12.7691C39.5754 6.83154 35.4148 1.21735 29.4517 0.294369C28.1763 0.0981453 26.8681 -0.00360107 25.5381 -0.00360107C11.5517 -0.00360107 0.250643 11.1521 0.0798547 25.1385C0.0398828 28.6124 0.693964 31.9301 1.91128 34.957C6.9368 47.4354 25.8579 40.6366 21.7009 27.8457C19.8803 22.2533 15.1746 18.5323 11.4572 15.1711Z" fill="#57C3F7"/>
</g>
<mask id="mask1_3_487" style="mask-type:luminance" maskUnits="userSpaceOnUse" x="18" y="2" width="33" height="49">
<path d="M18.8337 2.97974H50.9309V50.9311H18.8337V2.97974Z" fill="white"/>
</mask>
<g mask="url(#mask1_3_487)">
<path d="M37.8131 3.14691C39.9788 5.99943 43.4927 11.977 42.1482 19.4626C39.5645 33.8851 27.1261 44.6483 19.2808 50.139C21.283 50.6441 23.3797 50.913 25.5381 50.913C39.5972 50.913 50.9964 39.5138 50.9964 25.4547C50.9964 15.847 45.6729 7.48201 37.8131 3.14691Z" fill="#57C3F7"/>
</g>
</svg>
