<svg width="252" height="252" viewBox="0 0 252 252" fill="none" xmlns="http://www.w3.org/2000/svg">
<mask id="mask0_184_1106" style="mask-type:luminance" maskUnits="userSpaceOnUse" x="77" y="78" width="175" height="174">
<path d="M77.5885 78.5H252V251.833H77.5885V78.5Z" fill="white"/>
</mask>
<g mask="url(#mask0_184_1106)">
<path d="M165.146 78.6406C117.443 78.6406 78.6406 117.443 78.6406 165.146C78.6406 212.833 117.443 251.656 165.146 251.656H243.792C248.13 251.656 251.656 248.13 251.656 243.792V165.146C251.656 117.443 212.839 78.6406 165.146 78.6406Z" fill="#299AD1"/>
</g>
<path d="M220.198 102.234C220.198 100.911 220.042 99.6198 219.995 98.3177C205.052 86.0313 185.958 78.6406 165.146 78.6406C117.443 78.6406 78.6406 117.443 78.6406 165.146C78.6406 186.036 86.099 205.224 98.474 220.198H102.234C167.286 220.198 220.198 167.286 220.198 102.234Z" fill="#545454"/>
<mask id="mask1_184_1106" style="mask-type:luminance" maskUnits="userSpaceOnUse" x="0" y="0" width="206" height="206">
<path d="M0 0H205.589V205.167H0V0Z" fill="white"/>
</mask>
<g mask="url(#mask1_184_1106)">
<path d="M102.234 0C45.8646 0 0 45.8594 0 102.234V196.604C0 200.943 3.52083 204.469 7.86458 204.469H102.234C158.604 204.469 204.469 158.604 204.469 102.234C204.469 45.8594 158.604 0 102.234 0Z" fill="#299AD1"/>
</g>
</svg>
