<svg width="231" height="45" viewBox="0 0 231 45" fill="none" xmlns="http://www.w3.org/2000/svg">
<path d="M56.0893 9.9024C56.7923 9.78119 57.8348 9.72058 59.2166 9.72058C59.3287 9.72058 59.4287 9.72058 59.5196 9.72058C63.8894 9.72058 66.6773 10.9267 67.8834 13.3327C68.2955 14.1025 68.5379 14.8903 68.6106 15.6964C68.6834 16.4964 68.7197 17.0873 68.7197 17.4661C68.7197 18.2358 68.647 18.9692 68.5016 19.6722C67.9106 22.4601 66.3561 24.2783 63.8348 25.1268C63.2439 25.3056 62.9378 25.4117 62.9136 25.442C62.9136 25.645 64.247 27.6238 66.9137 31.3814C67.9379 32.8209 68.5864 33.7754 68.8531 34.2421C69.0864 34.6239 69.2046 34.8572 69.2046 34.9451C69.2046 35.036 69.1319 35.1694 68.9864 35.3451C68.4531 35.9027 67.5834 36.2997 66.3803 36.533C66.0318 36.5876 65.6955 36.6179 65.3742 36.6179C64.4045 36.6179 63.6106 36.3239 62.9985 35.733C62.6985 35.4421 62.4045 35.0542 62.1136 34.5694C61.8227 34.0845 61.0469 32.6996 59.7863 30.4117C59.6408 30.1451 59.4348 29.7784 59.1681 29.3087C58.2863 27.6693 57.7499 26.7117 57.556 26.4359C57.3681 26.1541 57.1863 26.0117 57.0105 26.0117C56.9529 26.0117 56.9075 26.0117 56.8772 26.0117C56.6105 26.0117 56.1863 25.9844 55.6044 25.9268L54.8044 25.7935V29.7451C54.8044 32.333 54.7468 33.8754 54.6347 34.3754C54.4893 34.8118 54.2014 35.2451 53.7741 35.6724C53.3438 36.0936 52.8953 36.3815 52.4286 36.533C52.1044 36.6209 51.8711 36.6663 51.7256 36.6663C51.5801 36.6663 51.362 36.5754 51.071 36.3997C50.7135 36.2239 50.3589 35.9088 50.0044 35.4542C49.6559 34.9936 49.4104 34.53 49.265 34.0603C49.1195 33.5693 49.0468 29.8602 49.0468 22.9329C49.0468 17.9146 49.0286 14.8843 48.9983 13.8418C48.974 12.7994 48.871 12.0297 48.6953 11.5267C48.5165 11.06 48.4286 10.7509 48.4286 10.6054C48.4286 10.5509 48.4437 10.5054 48.4771 10.4721C48.5892 10.3842 49.7165 10.2963 51.8589 10.2054C54.0317 10.06 55.4408 9.95998 56.0893 9.9024ZM61.459 15.1388C60.9257 14.8722 59.8984 14.7388 58.3802 14.7388C58.2257 14.7388 57.6651 14.7479 56.6954 14.7631C55.7317 14.7812 55.162 14.9328 54.9862 15.2237C54.865 15.3691 54.8044 16.4722 54.8044 18.5328V21.6116L56.7923 21.4783C59.1105 21.3328 60.6772 21.0359 61.4954 20.5813C62.3197 20.1207 62.7742 19.2904 62.8651 18.0843C62.8651 17.9722 62.8651 17.854 62.8651 17.7328C62.8651 16.4722 62.3954 15.6085 61.459 15.1388Z" fill="#2B2D42"/>
<path d="M77.2543 17.2115C77.9877 17.0903 78.6907 17.0297 79.3634 17.0297C79.8635 17.0297 80.3635 17.06 80.8665 17.1145C83.3544 17.5024 85.0999 18.6903 86.1029 20.6782C86.806 22.0297 87.1575 23.2782 87.1575 24.4237C87.1575 24.6601 87.1029 25.1692 86.9999 25.951C86.8938 26.7267 86.315 27.2783 85.2665 27.5995C84.1181 27.948 81.7544 28.1207 78.1756 28.1207H75.1816L75.3634 29.0419C75.5089 29.6328 75.6543 30.0601 75.7998 30.3268C75.9452 30.5874 76.2058 30.8783 76.5877 31.1995C77.3543 31.9026 78.3392 32.2541 79.5453 32.2541C79.7453 32.2541 79.9635 32.242 80.1998 32.2177C81.6938 32.042 83.0877 31.4238 84.3817 30.3632L85.6181 29.3571L85.9696 29.8783C86.2908 30.4692 86.4544 31.0723 86.4544 31.6844C86.4544 31.8056 86.4363 32.0723 86.406 32.4844C86.3726 32.8905 86.0938 33.3571 85.5696 33.8905C84.6878 34.8844 83.5726 35.545 82.2241 35.8662C80.8726 36.1905 79.715 36.3511 78.7453 36.3511C78.0089 36.3511 77.024 36.242 75.7876 36.0238C74.5573 35.8056 73.4907 35.2238 72.5876 34.2784C71.5846 33.3177 70.9149 32.1632 70.5755 30.8116C70.2421 29.4631 70.0785 28.2419 70.0785 27.151C70.0785 26.4813 70.1209 25.7934 70.2118 25.0904C70.5027 23.2419 71.0876 21.6964 71.9694 20.46C73.2058 18.6994 74.9664 17.6175 77.2543 17.2115ZM81.121 21.7449C80.7392 21.4782 80.1271 21.3297 79.2786 21.2964C79.1331 21.2964 78.9998 21.2964 78.8786 21.2964C78.3756 21.2964 77.9574 21.3509 77.618 21.454C77.2846 21.56 76.9301 21.7873 76.5513 22.1328C76.3149 22.3691 76.0483 22.7812 75.7513 23.3691C75.4604 23.96 75.3149 24.3843 75.3149 24.6419C75.3149 24.8207 75.3331 24.9267 75.3755 24.957C75.424 24.9813 75.4755 24.9934 75.5331 24.9934C75.5876 24.9934 75.6786 24.9813 75.7998 24.957C76.4452 24.8358 78.1907 24.6601 81.0362 24.4237C81.6483 24.3691 82.0211 24.3207 82.1514 24.2782C82.2877 24.2297 82.3574 24.1055 82.3574 23.9025C82.3574 23.5813 82.2241 23.1994 81.9574 22.7631C81.6968 22.3206 81.418 21.9812 81.121 21.7449Z" fill="#2B2D42"/>
<path d="M93.2684 17.0782C93.8805 16.9327 94.7987 16.86 96.02 16.86C97.2382 16.86 98.1836 16.9327 98.8564 17.0782C99.5351 17.257 100.165 17.4873 100.747 17.7691C101.335 18.0448 101.72 18.3115 101.899 18.5691C102.069 18.8358 102.153 19.1449 102.153 19.4903C102.153 19.7267 102.093 20.0843 101.972 20.5691C101.856 21.054 101.553 21.5206 101.062 21.9631L100.662 22.351L99.9594 21.9146C99.1988 21.3903 98.4351 21.0479 97.6685 20.8843C96.9078 20.7237 96.323 20.6418 95.9109 20.6418C95.529 20.6418 95.1896 20.6873 94.8927 20.7752C94.2442 20.9782 93.923 21.4479 93.923 22.1813C93.923 22.5631 94.1048 22.8934 94.4684 23.1752C94.8381 23.451 95.5109 23.751 96.4806 24.0722C98.5079 24.751 99.9473 25.351 100.796 25.8662C101.644 26.3752 102.256 27.0268 102.638 27.8177C102.959 28.4662 103.123 29.2692 103.123 30.2298C103.123 31.0874 103.014 31.7874 102.796 32.3268C102.578 32.8693 102.172 33.4784 101.584 34.1572C100.411 35.4754 99.1776 36.2057 97.8866 36.3511C96.6018 36.4966 95.7351 36.5693 95.2927 36.5693C93.6502 36.5693 92.0684 36.2026 90.5411 35.4663C88.8684 34.6511 88.032 33.642 88.032 32.4359C88.032 32.2602 88.0471 32.0693 88.0805 31.8662C88.1593 31.4238 88.2896 30.9814 88.4684 30.545C88.6441 30.1026 88.7956 29.8783 88.9168 29.8783C88.9956 29.8783 89.5108 30.1753 90.4563 30.7632C91.6593 31.5238 92.6926 32.0086 93.5593 32.2177C94.423 32.4208 95.0745 32.5208 95.5109 32.5208C96.0442 32.5208 96.4836 32.4208 96.8321 32.2177C97.0988 32.0723 97.2806 31.9117 97.3775 31.7329C97.4806 31.5571 97.5351 31.2602 97.5351 30.848C97.5351 30.4359 97.3291 30.0844 96.9169 29.7935C96.5109 29.5026 95.7078 29.1359 94.5048 28.6904C92.532 27.9874 91.1229 27.3298 90.2744 26.7146C89.3047 25.9813 88.6562 24.9661 88.335 23.6722C88.2199 23.2692 88.1653 22.8722 88.1653 22.4843C88.1653 21.5237 88.5684 20.5055 89.3775 19.4297C90.1835 18.357 91.4805 17.5721 93.2684 17.0782Z" fill="#2B2D42"/>
<path d="M113.557 17.163C114.114 17.0176 114.672 16.9448 115.23 16.9448C115.787 16.9448 116.472 17.0509 117.29 17.26C118.115 17.463 118.908 17.8994 119.678 18.5691C121.084 19.8297 121.948 21.6934 122.272 24.157C122.36 24.7479 122.405 25.3207 122.405 25.8783C122.405 27.5207 121.993 29.1935 121.169 30.8965C120.345 32.5935 119.084 33.7662 117.387 34.4117C116.36 34.7996 115.199 34.9935 113.908 34.9935C112.614 34.9935 111.572 34.7875 110.781 34.3753L109.896 33.9268L109.86 35.5147C109.86 39.5936 109.669 42.03 109.29 42.8239C108.845 43.727 108.381 44.1967 107.896 44.23C107.411 44.2603 107.139 44.2785 107.084 44.2785C106.236 44.2785 105.56 43.8663 105.06 43.0421C104.711 42.4512 104.52 41.8572 104.49 41.2603C104.457 40.6603 104.442 40.1118 104.442 39.6118C104.442 37.436 104.484 34.7693 104.575 31.5995C104.629 29.048 104.66 26.9177 104.66 25.2116C104.66 24.0722 104.639 22.8358 104.599 21.5025C104.557 20.163 104.405 19.0539 104.139 18.1812C104.048 17.9145 104.005 17.6933 104.005 17.5145C104.005 17.4024 104.033 17.3297 104.09 17.2963C104.211 17.2418 104.769 17.1812 105.763 17.1145C105.972 17.1145 106.178 17.1145 106.381 17.1145C107.763 17.1145 108.833 17.366 109.593 17.866L110.26 18.3024L111.399 17.866C112.069 17.5751 112.787 17.3418 113.557 17.163ZM115.23 22.2661C114.784 22.0328 114.227 21.9146 113.557 21.9146C113.499 21.9146 113.427 21.9146 113.339 21.9146C112.714 21.9146 112.072 22.0206 111.411 22.2297C110.757 22.4328 110.372 22.651 110.26 22.8843C110.169 23.0631 110.081 24.2237 109.993 26.3631L109.86 29.5753L110.381 29.9753C110.939 30.3571 111.496 30.5995 112.054 30.7026C112.611 30.7995 113.024 30.848 113.29 30.848C113.733 30.848 114.13 30.7753 114.478 30.6298C115.327 30.3086 115.933 29.7025 116.296 28.8116C116.666 27.9146 116.854 27.054 116.854 26.2298C116.854 25.851 116.824 25.454 116.769 25.0419C116.648 24.2843 116.469 23.6964 116.236 23.2843C115.999 22.8722 115.666 22.5328 115.23 22.2661Z" fill="#2B2D42"/>
<path d="M129.17 17.2478C129.937 17.1024 130.773 17.0297 131.679 17.0297C131.743 17.0297 131.803 17.0297 131.861 17.0297C134.382 17.0297 136.37 17.7509 137.825 19.1873C139.279 20.6267 140.079 22.7388 140.225 25.5267C140.225 25.7631 140.225 25.9964 140.225 26.2298C140.225 27.9025 139.961 29.4722 139.437 30.9329C139.025 31.9692 138.325 32.9692 137.34 33.939C136.352 34.9026 135.346 35.5602 134.321 35.9147C133.673 36.1511 132.918 36.2905 132.055 36.339C131.188 36.3814 130.567 36.3996 130.188 36.3996C129.452 36.3996 128.849 36.3572 128.382 36.2663C126.297 35.8238 124.749 34.7874 123.74 33.1632C122.727 31.5329 122.224 29.5571 122.224 27.2358C122.224 26.9207 122.236 26.6025 122.261 26.2783C122.382 24.1388 122.882 22.36 123.764 20.9449C124.321 20.0661 125.088 19.2903 126.067 18.6176C127.052 17.9388 128.085 17.4842 129.17 17.2478ZM132.649 22.0964C132.179 21.8873 131.709 21.7812 131.243 21.7812C130.715 21.7812 130.188 21.9146 129.655 22.1812C128.952 22.5297 128.446 23.06 128.14 23.7691C127.83 24.4722 127.661 25.454 127.63 26.7146C127.63 27.8631 127.764 28.7268 128.03 29.3086C128.409 30.1328 128.87 30.7238 129.412 31.0783C129.961 31.4268 130.676 31.5995 131.558 31.5995C132.518 31.5995 133.249 31.3147 133.752 30.7389C134.252 30.1662 134.591 29.2359 134.77 27.951C134.825 27.5086 134.855 27.0661 134.855 26.6298C134.855 25.9843 134.764 25.2661 134.588 24.4722C134.409 23.6813 134.085 23.0631 133.618 22.6176C133.44 22.4418 133.115 22.2661 132.649 22.0964Z" fill="#2B2D42"/>
<path d="M150.084 17.163C150.575 17.0418 151.175 16.9812 151.878 16.9812C152.029 16.9812 152.378 16.9903 152.92 17.0054C153.46 17.0236 154.026 17.1357 154.617 17.3448C155.175 17.5479 155.787 17.9721 156.46 18.6176C157.193 19.354 157.642 20.06 157.805 20.7388C157.966 21.4116 158.048 22.8601 158.048 25.0904C158.072 28.551 158.114 30.9086 158.181 32.1693C158.205 32.8481 158.217 33.4056 158.217 33.842C158.217 34.2541 158.199 34.5663 158.169 34.7754C158.145 34.9784 158.014 35.1966 157.781 35.4299C157.133 36.1329 156.254 36.5269 155.139 36.6178C155.023 36.6178 154.908 36.6178 154.787 36.6178C153.793 36.6178 153.029 36.1511 152.496 35.2117C152.317 34.8572 152.208 34.4178 152.169 33.8905C152.126 33.3572 152.09 31.848 152.06 29.3571C152.06 26.5934 152.035 24.8964 151.987 24.2661C151.945 23.6358 151.869 23.2055 151.757 22.9692C151.545 22.6237 151.323 22.3752 151.09 22.2297C150.887 22.1085 150.535 22.0479 150.035 22.0479C149.945 22.0479 149.714 22.057 149.345 22.0722C148.981 22.0904 148.623 22.1691 148.278 22.3146C148.245 22.3388 148.211 22.351 148.181 22.351C147.623 22.6176 147.29 22.9873 147.187 23.454C147.09 23.9237 147.011 25.6237 146.957 28.5571C146.957 28.8238 146.957 29.0298 146.957 29.1753C146.89 32.6662 146.787 34.5753 146.641 34.8966C146.405 35.4299 146.054 35.8663 145.587 36.2057C145.117 36.536 144.605 36.7026 144.048 36.7026C143.457 36.7026 142.884 36.4693 142.326 35.9996C141.769 35.5329 141.372 34.9905 141.138 34.3753C141.081 34.0784 141.054 32.9753 141.054 31.0662C141.054 30.4298 141.054 29.6965 141.054 28.8723C141.054 28.0813 141.054 27.345 141.054 26.6662C141.054 22.7085 140.847 20.0237 140.435 18.6176L140.132 17.5994L141.017 17.4297C141.575 17.2842 142.205 17.2115 142.908 17.2115C143.02 17.2115 143.138 17.2115 143.26 17.2115C144.696 17.2115 145.769 17.5479 146.472 18.2176L146.908 18.6176L148.011 18.0479C148.714 17.66 149.405 17.3661 150.084 17.163Z" fill="#2B2D42"/>
<path d="M171.728 7.91442C172.083 7.89017 172.434 7.87805 172.783 7.87805C173.462 7.87805 174.225 7.96896 175.074 8.14472C175.922 8.31442 176.58 8.60533 177.05 9.01746C177.438 9.34171 177.65 9.58413 177.692 9.74474C177.731 9.90838 177.753 10.0326 177.753 10.1205C177.753 10.3235 177.68 10.6175 177.534 11.0054C177.389 11.3872 177.298 12.1933 177.268 13.4296C177.244 14.6599 177.213 17.957 177.183 23.3207C177.183 28.751 177.165 32.048 177.134 33.2117C177.11 34.3693 177.025 35.0784 176.88 35.345C176.644 35.7269 176.298 36.0329 175.837 36.2663C175.383 36.4996 174.995 36.6178 174.674 36.6178C174.559 36.6178 174.386 36.5935 174.153 36.5451C173.916 36.5026 173.577 36.339 173.134 36.0481C172.698 35.7511 172.374 35.439 172.165 35.1147L171.862 34.5935L171.559 34.945C171.404 35.1481 170.904 35.4723 170.056 35.9147C168.795 36.5269 167.577 36.836 166.407 36.836C165.346 36.836 164.046 36.4481 162.504 35.6723C160.968 34.8966 159.922 33.1874 159.365 30.545C159.186 29.6965 159.098 28.7995 159.098 27.854C159.098 27.3874 159.14 26.6631 159.231 25.6843C159.319 24.6995 159.598 23.7207 160.068 22.751C160.389 22.1055 160.952 21.3812 161.752 20.5812C162.559 19.7752 163.274 19.2206 163.898 18.9206C164.892 18.4539 165.756 18.2054 166.492 18.1812C167.225 18.1509 167.668 18.1327 167.813 18.1327C168.895 18.1327 169.804 18.2964 170.54 18.6176C171.065 18.8539 171.359 18.9691 171.425 18.9691C171.45 18.9691 171.462 18.3236 171.462 17.0297C171.462 16.3842 171.462 15.5751 171.462 14.6054C171.404 12.6993 171.353 11.4387 171.304 10.8235C171.262 10.2114 171.171 9.66898 171.025 9.19928C170.88 8.73261 170.807 8.42351 170.807 8.27806C170.807 8.21442 170.819 8.14472 170.843 8.07199C170.874 7.99927 171.171 7.94775 171.728 7.91442ZM170.589 23.1873C169.998 22.9873 169.38 22.8843 168.734 22.8843C168.701 22.8843 168.495 22.8934 168.116 22.9085C167.734 22.9267 167.328 23.0358 166.892 23.2358C166.122 23.5934 165.553 24.151 165.183 24.9086C164.819 25.6692 164.637 26.5207 164.637 27.4662C164.637 27.6116 164.637 27.7571 164.637 27.9025C164.701 29.1086 165.013 30.0541 165.571 30.7389C166.128 31.4268 166.874 31.8298 167.813 31.9511C167.959 31.9844 168.104 31.9995 168.25 31.9995C169.162 31.9995 170.025 31.5874 170.843 30.7632L171.462 30.1086V23.454L170.589 23.1873Z" fill="#2B2D42"/>
<path d="M185.811 17.2115C186.545 17.0903 187.248 17.0297 187.92 17.0297C188.42 17.0297 188.92 17.06 189.424 17.1145C191.911 17.5024 193.657 18.6903 194.66 20.6782C195.363 22.0297 195.714 23.2782 195.714 24.4237C195.714 24.6601 195.66 25.1692 195.557 25.951C195.451 26.7267 194.872 27.2783 193.824 27.5995C192.675 27.948 190.311 28.1207 186.733 28.1207H183.739L183.92 29.0419C184.066 29.6328 184.211 30.0601 184.357 30.3268C184.502 30.5874 184.763 30.8783 185.145 31.1995C185.911 31.9026 186.896 32.2541 188.102 32.2541C188.302 32.2541 188.52 32.242 188.757 32.2177C190.251 32.042 191.645 31.4238 192.939 30.3632L194.175 29.3571L194.527 29.8783C194.848 30.4692 195.011 31.0723 195.011 31.6844C195.011 31.8056 194.993 32.0723 194.963 32.4844C194.93 32.8905 194.651 33.3571 194.127 33.8905C193.245 34.8844 192.13 35.545 190.781 35.8662C189.43 36.1905 188.272 36.3511 187.302 36.3511C186.566 36.3511 185.581 36.242 184.345 36.0238C183.114 35.8056 182.048 35.2238 181.145 34.2784C180.142 33.3177 179.472 32.1632 179.132 30.8116C178.799 29.4631 178.635 28.2419 178.635 27.151C178.635 26.4813 178.678 25.7934 178.769 25.0904C179.06 23.2419 179.645 21.6964 180.526 20.46C181.763 18.6994 183.523 17.6175 185.811 17.2115ZM189.678 21.7449C189.296 21.4782 188.684 21.3297 187.836 21.2964C187.69 21.2964 187.557 21.2964 187.436 21.2964C186.933 21.2964 186.514 21.3509 186.175 21.454C185.842 21.56 185.487 21.7873 185.108 22.1328C184.872 22.3691 184.605 22.7812 184.308 23.3691C184.017 23.96 183.872 24.3843 183.872 24.6419C183.872 24.8207 183.89 24.9267 183.933 24.957C183.981 24.9813 184.033 24.9934 184.09 24.9934C184.145 24.9934 184.236 24.9813 184.357 24.957C185.002 24.8358 186.748 24.6601 189.593 24.4237C190.205 24.3691 190.578 24.3207 190.708 24.2782C190.845 24.2297 190.914 24.1055 190.914 23.9025C190.914 23.5813 190.781 23.1994 190.514 22.7631C190.254 22.3206 189.975 21.9812 189.678 21.7449Z" fill="#2B2D42"/>
<path d="M206.892 10.2055C207.213 10.0933 207.656 10.0358 208.213 10.0358C208.268 10.0358 208.48 10.0449 208.844 10.06C209.213 10.0691 209.559 10.1509 209.874 10.3024C210.286 10.4721 210.617 10.757 210.868 11.1509C211.117 11.5479 211.42 12.2903 211.777 13.3813C212.156 14.4661 213.283 17.551 215.159 22.642C217.041 27.7329 218.335 31.2057 219.038 33.0542L220.008 35.5633L219.608 35.8664C219.226 36.1906 218.492 36.3512 217.401 36.3512C217.077 36.3512 216.741 36.3361 216.395 36.3027C215.28 36.224 214.492 35.9209 214.032 35.3936C213.577 34.8603 213.074 33.6421 212.517 31.733L211.947 29.7936L204.068 29.8784L203.365 31.9512C202.838 33.3573 202.504 34.2239 202.359 34.5451C202.147 34.927 201.865 35.2724 201.51 35.5876C201.162 35.8967 200.825 36.0936 200.504 36.1815C200.122 36.2967 199.583 36.3512 198.88 36.3512C198.789 36.3512 198.51 36.3452 198.044 36.327C197.574 36.3118 197.162 36.23 196.807 36.0846L196.238 35.8664L196.541 34.9451C196.571 34.8573 196.662 34.6148 196.807 34.2179C196.953 33.8239 197.113 33.3997 197.292 32.9451C197.468 32.4845 197.632 32.0663 197.777 31.6845C198.48 29.8118 199.332 27.4966 200.335 24.739C201.271 22.0662 202.207 19.5238 203.147 17.1146C203.88 15.2722 204.377 13.8237 204.638 12.7631C204.871 11.8509 205.05 11.3085 205.171 11.1388C205.462 10.7843 206.035 10.4721 206.892 10.2055ZM210.238 25.3935C210.238 25.3935 210.238 25.3784 210.238 25.345C210.238 25.0238 209.88 23.7329 209.171 21.4783L207.983 17.6965L206.759 21.3935C205.935 23.8268 205.504 25.1329 205.474 25.3087C205.474 25.4541 206.238 25.5269 207.765 25.5269C209.292 25.5269 210.116 25.4844 210.238 25.3935Z" fill="#2B2D42"/>
<path d="M226.903 7.47804C227.17 7.42349 227.436 7.39319 227.703 7.39319C228.203 7.39319 228.715 7.51137 229.242 7.74471C229.742 7.98107 230.158 8.28714 230.491 8.66593C230.83 9.04775 231 9.38715 231 9.68412C231 10.1538 230.309 10.9175 228.927 11.9751C227.551 13.0266 226.351 13.7024 225.327 13.9993C224.794 14.169 224.267 14.2721 223.751 14.3024C223.242 14.3357 222.897 14.3508 222.721 14.3508C222.285 14.3508 222.036 14.3084 221.982 14.2175C221.982 14.2175 221.982 14.2024 221.982 14.169C221.982 14.0236 222.215 13.5478 222.685 12.7387C223.151 11.9326 223.682 11.1023 224.273 10.2538C225.388 8.58108 226.264 7.65683 226.903 7.47804ZM221.23 17.163C221.667 17.0751 222.43 17.0145 223.521 16.9812C224.424 16.9812 225.097 17.06 225.533 17.2115C225.976 17.3569 226.361 17.6206 226.685 17.9994C226.861 18.2024 226.957 18.3842 226.976 18.5448C226.991 18.7085 227 18.8479 227 18.9691C227 19.3176 226.967 19.9752 226.903 20.9449C226.845 22.36 226.773 25.3086 226.685 29.7935C226.627 32.2601 226.576 33.7511 226.527 34.2662C226.485 34.7753 226.376 35.1632 226.2 35.4299C225.818 35.9329 225.403 36.242 224.951 36.3632C224.497 36.4784 224.154 36.5329 223.921 36.5329C223.509 36.5329 223.124 36.445 222.77 36.2663C222.388 36.0572 222.036 35.6905 221.715 35.1632L221.23 34.3753V27.7692C221.23 23.8419 221.212 21.4752 221.182 20.6661C221.157 19.86 221.054 19.16 220.879 18.5691L220.527 17.3448L221.23 17.163Z" fill="#2B2D42"/>
<mask id="mask0_4_884" style="mask-type:luminance" maskUnits="userSpaceOnUse" x="0" y="0" width="33" height="36">
<path d="M0 0H32.7731V35.0671H0V0Z" fill="white"/>
</mask>
<g mask="url(#mask0_4_884)">
<path d="M21.976 5.70308L28.7942 5.36671L28.2851 6.20914C28.2851 6.23945 28.2882 6.26975 28.2942 6.29702C28.3397 6.45763 28.5124 6.61824 28.8215 6.78491C29.3367 7.0637 29.6518 7.35764 29.8791 7.78189L30.4912 8.10007L30.1336 8.61523L29.5094 8.63644L29.5761 7.8728C29.3791 7.5334 29.1094 7.29703 28.673 7.05764C28.473 6.94854 28.2154 6.78491 28.076 6.5546L27.476 7.54855L27.6094 7.76977C28.4912 8.50614 29.0518 9.61221 29.0518 10.8516C29.0518 13.0698 27.2548 14.8638 25.0396 14.8638C23.076 14.8638 21.4457 13.4547 21.0972 11.5941L20.9941 11.4183L18.4487 11.5456L21.976 5.70308ZM9.55462 12.6516C9.55462 12.6516 20.5396 18.0275 26.9124 16.388L26.1094 22.0124L27.7124 24.6003L29.3185 21.7881L27.9154 16.0547C28.1882 15.9396 28.4457 15.8123 28.6942 15.6638C30.8003 14.3911 31.7822 12.5698 32.1216 10.6486C33.0034 5.69701 29.5336 1.01514 24.5609 0.245436C23.4972 0.0817981 22.4063 -0.00305176 21.2972 -0.00305176C9.63341 -0.00305176 0.209054 9.30009 0.066628 20.9639C0.0332941 23.8609 0.578755 26.6276 1.59392 29.1518C5.78488 39.558 21.5639 33.8883 18.0971 23.2215C16.5789 18.5578 12.6547 15.4547 9.55462 12.6516Z" fill="#2B2D42"/>
</g>
<mask id="mask1_4_884" style="mask-type:luminance" maskUnits="userSpaceOnUse" x="15" y="2" width="28" height="41">
<path d="M15.7061 2.48486H42.473V42.4732H15.7061V2.48486Z" fill="white"/>
</mask>
<g mask="url(#mask1_4_884)">
<path d="M31.5336 2.62427C33.3397 5.00308 36.27 9.98799 35.1488 16.2305C32.9942 28.2579 22.6214 37.2338 16.0789 41.8126C17.7486 42.2338 19.4971 42.4581 21.2971 42.4581C33.0215 42.4581 42.5277 32.9519 42.5277 21.2275C42.5277 13.2153 38.0882 6.23946 31.5336 2.62427Z" fill="#2B2D42"/>
</g>
</svg>
