<svg width="404" height="82" viewBox="0 0 404 82" fill="none" xmlns="http://www.w3.org/2000/svg">
<path d="M102.695 21.3109C103.903 21.1025 105.695 20.9984 108.07 20.9984C108.263 20.9984 108.435 20.9984 108.591 20.9984C116.101 20.9984 120.893 23.0713 122.966 27.2067C123.674 28.5296 124.091 29.8838 124.216 31.2692C124.341 32.6442 124.403 33.6598 124.403 34.3109C124.403 35.6338 124.278 36.8942 124.028 38.1025C123.013 42.8942 120.341 46.0192 116.008 47.4775C114.992 47.7848 114.466 47.9671 114.424 48.0192C114.424 48.3681 116.716 51.7692 121.299 58.2275C123.06 60.7015 124.174 62.3421 124.633 63.1442C125.034 63.8004 125.237 64.2015 125.237 64.3525C125.237 64.5088 125.112 64.7379 124.862 65.04C123.945 65.9984 122.45 66.6806 120.383 67.0817C119.784 67.1754 119.206 67.2275 118.653 67.2275C116.987 67.2275 115.622 66.7223 114.57 65.7067C114.054 65.2067 113.549 64.54 113.049 63.7067C112.549 62.8734 111.216 60.4931 109.049 56.5609C108.799 56.1025 108.445 55.4723 107.987 54.665C106.471 51.8473 105.549 50.2015 105.216 49.7275C104.893 49.2431 104.581 48.9984 104.278 48.9984C104.179 48.9984 104.101 48.9984 104.049 48.9984C103.591 48.9984 102.862 48.9515 101.862 48.8525L100.487 48.6234V55.415C100.487 59.8629 100.388 62.514 100.195 63.3734C99.9451 64.1234 99.4503 64.8681 98.7159 65.6025C97.9764 66.3265 97.2055 66.8213 96.4034 67.0817C95.8462 67.2327 95.4451 67.3109 95.1951 67.3109C94.9451 67.3109 94.5701 67.1546 94.0701 66.8525C93.4555 66.5504 92.8462 66.0088 92.2368 65.2275C91.6378 64.4359 91.2159 63.639 90.9659 62.8317C90.7159 61.9879 90.5909 55.6129 90.5909 43.7067C90.5909 35.0817 90.5597 29.8734 90.5076 28.0817C90.4659 26.29 90.2889 24.9671 89.9868 24.1025C89.6795 23.3004 89.5284 22.7692 89.5284 22.5192C89.5284 22.4254 89.5545 22.3473 89.6118 22.29C89.8045 22.139 91.742 21.9879 95.4243 21.8317C99.1587 21.5817 101.581 21.4098 102.695 21.3109ZM111.924 30.3109C111.008 29.8525 109.242 29.6234 106.633 29.6234C106.367 29.6234 105.403 29.639 103.737 29.665C102.081 29.6963 101.101 29.9567 100.799 30.4567C100.591 30.7067 100.487 32.6025 100.487 36.1442V41.4359L103.903 41.2067C107.888 40.9567 110.581 40.4463 111.987 39.665C113.403 38.8734 114.185 37.4463 114.341 35.3734C114.341 35.1806 114.341 34.9775 114.341 34.7692C114.341 32.6025 113.534 31.1181 111.924 30.3109Z" fill="#2B2D42"/>
<path d="M139.072 33.8734C140.333 33.665 141.541 33.5609 142.697 33.5609C143.556 33.5609 144.416 33.6129 145.28 33.7067C149.556 34.3734 152.556 36.415 154.28 39.8317C155.489 42.1546 156.093 44.3004 156.093 46.2692C156.093 46.6754 155.999 47.5504 155.822 48.8942C155.64 50.2275 154.645 51.1754 152.843 51.7275C150.869 52.3265 146.806 52.6234 140.655 52.6234H135.51L135.822 54.2067C136.072 55.2223 136.322 55.9567 136.572 56.415C136.822 56.8629 137.27 57.3629 137.926 57.915C139.244 59.1234 140.937 59.7275 143.01 59.7275C143.353 59.7275 143.728 59.7067 144.135 59.665C146.702 59.3629 149.098 58.3004 151.322 56.4775L153.447 54.7484L154.051 55.6442C154.603 56.6598 154.885 57.6963 154.885 58.7484C154.885 58.9567 154.853 59.415 154.801 60.1234C154.744 60.8213 154.265 61.6234 153.364 62.54C151.848 64.2484 149.931 65.3838 147.614 65.9359C145.291 66.4931 143.301 66.7692 141.635 66.7692C140.369 66.7692 138.676 66.5817 136.551 66.2067C134.437 65.8317 132.603 64.8317 131.051 63.2067C129.327 61.5556 128.176 59.5713 127.593 57.2484C127.02 54.9306 126.739 52.8317 126.739 50.9567C126.739 49.8056 126.812 48.6234 126.968 47.415C127.468 44.2379 128.473 41.5817 129.989 39.4567C132.114 36.4306 135.14 34.5713 139.072 33.8734ZM145.718 41.665C145.062 41.2067 144.01 40.9515 142.551 40.8942C142.301 40.8942 142.072 40.8942 141.864 40.8942C140.999 40.8942 140.28 40.9879 139.697 41.165C139.124 41.3473 138.515 41.7379 137.864 42.3317C137.458 42.7379 136.999 43.4463 136.489 44.4567C135.989 45.4723 135.739 46.2015 135.739 46.6442C135.739 46.9515 135.77 47.1338 135.843 47.1859C135.926 47.2275 136.015 47.2484 136.114 47.2484C136.208 47.2484 136.364 47.2275 136.572 47.1859C137.681 46.9775 140.681 46.6754 145.572 46.2692C146.624 46.1754 147.265 46.0921 147.489 46.0192C147.723 45.9359 147.843 45.7223 147.843 45.3734C147.843 44.8213 147.614 44.165 147.155 43.415C146.708 42.6546 146.228 42.0713 145.718 41.665Z" fill="#2B2D42"/>
<path d="M166.596 33.6442C167.648 33.3942 169.226 33.2692 171.325 33.2692C173.419 33.2692 175.044 33.3942 176.2 33.6442C177.367 33.9515 178.45 34.3473 179.45 34.8317C180.461 35.3057 181.122 35.764 181.429 36.2067C181.721 36.665 181.867 37.1963 181.867 37.79C181.867 38.1963 181.763 38.8109 181.554 39.6442C181.356 40.4775 180.836 41.2796 179.992 42.04L179.304 42.7067L178.096 41.9567C176.789 41.0557 175.476 40.4671 174.158 40.1859C172.851 39.9098 171.846 39.7692 171.138 39.7692C170.481 39.7692 169.898 39.8473 169.388 39.9984C168.273 40.3473 167.721 41.1546 167.721 42.415C167.721 43.0713 168.033 43.639 168.658 44.1234C169.294 44.5973 170.45 45.1129 172.117 45.665C175.601 46.8317 178.075 47.8629 179.533 48.7484C180.992 49.6234 182.044 50.7432 182.7 52.1025C183.252 53.2171 183.533 54.5973 183.533 56.2484C183.533 57.7223 183.346 58.9254 182.971 59.8525C182.596 60.7848 181.898 61.8317 180.888 62.9984C178.872 65.264 176.752 66.5192 174.533 66.7692C172.325 67.0192 170.836 67.1442 170.075 67.1442C167.252 67.1442 164.533 66.514 161.908 65.2484C159.033 63.8473 157.596 62.1129 157.596 60.04C157.596 59.7379 157.622 59.4098 157.679 59.0609C157.815 58.3004 158.039 57.54 158.346 56.79C158.648 56.0296 158.908 55.6442 159.117 55.6442C159.252 55.6442 160.138 56.1546 161.763 57.165C163.83 58.4723 165.606 59.3057 167.096 59.665C168.58 60.014 169.7 60.1859 170.45 60.1859C171.367 60.1859 172.122 60.014 172.721 59.665C173.179 59.415 173.492 59.139 173.658 58.8317C173.836 58.5296 173.929 58.0192 173.929 57.3109C173.929 56.6025 173.575 55.9984 172.867 55.4984C172.169 54.9984 170.789 54.3682 168.721 53.6025C165.33 52.3942 162.908 51.264 161.45 50.2067C159.783 48.9463 158.669 47.2015 158.117 44.9775C157.919 44.2848 157.825 43.6025 157.825 42.9359C157.825 41.2848 158.518 39.5348 159.908 37.6859C161.294 35.8421 163.523 34.4932 166.596 33.6442Z" fill="#2B2D42"/>
<path d="M201.466 33.79C202.425 33.54 203.383 33.415 204.341 33.415C205.3 33.415 206.477 33.5973 207.883 33.9567C209.3 34.3056 210.664 35.0556 211.987 36.2067C214.404 38.3733 215.888 41.5765 216.446 45.8108C216.597 46.8265 216.675 47.8108 216.675 48.7692C216.675 51.5921 215.966 54.4671 214.55 57.3942C213.133 60.3108 210.966 62.3265 208.05 63.4358C206.284 64.1025 204.289 64.4358 202.071 64.4358C199.847 64.4358 198.055 64.0817 196.696 63.3733L195.175 62.6025L195.112 65.3317C195.112 72.3421 194.784 76.5296 194.133 77.8942C193.367 79.4463 192.571 80.2536 191.737 80.3108C190.904 80.3629 190.435 80.3942 190.341 80.3942C188.883 80.3942 187.722 79.6858 186.862 78.2692C186.263 77.2536 185.935 76.2327 185.883 75.2067C185.826 74.1754 185.8 73.2327 185.8 72.3733C185.8 68.6338 185.873 64.0504 186.029 58.6025C186.123 54.2171 186.175 50.5556 186.175 47.6233C186.175 45.665 186.138 43.54 186.071 41.2483C185.998 38.9463 185.737 37.04 185.279 35.54C185.123 35.0817 185.05 34.7015 185.05 34.3942C185.05 34.2015 185.097 34.0765 185.196 34.0192C185.404 33.9254 186.362 33.8213 188.071 33.7067C188.43 33.7067 188.784 33.7067 189.133 33.7067C191.508 33.7067 193.347 34.139 194.654 34.9983L195.8 35.7483L197.758 34.9983C198.909 34.4983 200.143 34.0973 201.466 33.79ZM204.341 42.5608C203.576 42.1598 202.617 41.9567 201.466 41.9567C201.367 41.9567 201.242 41.9567 201.091 41.9567C200.018 41.9567 198.914 42.139 197.779 42.4983C196.654 42.8473 195.992 43.2223 195.8 43.6233C195.643 43.9306 195.492 45.9254 195.341 49.6025L195.112 55.1233L196.008 55.8108C196.966 56.4671 197.925 56.8838 198.883 57.0608C199.841 57.2275 200.55 57.3108 201.008 57.3108C201.768 57.3108 202.451 57.1858 203.05 56.9358C204.508 56.3838 205.55 55.3421 206.175 53.8108C206.81 52.2692 207.133 50.79 207.133 49.3733C207.133 48.7223 207.081 48.04 206.987 47.3317C206.779 46.0296 206.472 45.0192 206.071 44.3108C205.664 43.6025 205.091 43.0192 204.341 42.5608Z" fill="#2B2D42"/>
<path d="M228.301 33.9359C229.619 33.6859 231.056 33.5609 232.613 33.5609C232.723 33.5609 232.827 33.5609 232.926 33.5609C237.259 33.5609 240.676 34.8004 243.176 37.2692C245.676 39.7431 247.051 43.3734 247.301 48.165C247.301 48.5713 247.301 48.9723 247.301 49.3734C247.301 52.2484 246.848 54.9463 245.947 57.4567C245.238 59.2379 244.035 60.9567 242.343 62.6234C240.645 64.2796 238.915 65.4098 237.155 66.0192C236.04 66.4254 234.744 66.665 233.259 66.7484C231.77 66.8213 230.702 66.8525 230.051 66.8525C228.785 66.8525 227.749 66.7796 226.947 66.6234C223.363 65.8629 220.702 64.0817 218.968 61.29C217.228 58.4879 216.363 55.0921 216.363 51.1025C216.363 50.5609 216.384 50.014 216.426 49.4567C216.634 45.7796 217.494 42.7223 219.009 40.29C219.968 38.7796 221.285 37.4463 222.968 36.29C224.66 35.1234 226.436 34.3421 228.301 33.9359ZM234.28 42.2692C233.473 41.9098 232.665 41.7275 231.863 41.7275C230.957 41.7275 230.051 41.9567 229.134 42.415C227.926 43.014 227.056 43.9254 226.53 45.1442C225.999 46.3525 225.707 48.04 225.655 50.2067C225.655 52.1806 225.884 53.665 226.343 54.665C226.994 56.0817 227.785 57.0973 228.718 57.7067C229.66 58.3056 230.889 58.6025 232.405 58.6025C234.056 58.6025 235.311 58.1129 236.176 57.1234C237.035 56.139 237.619 54.54 237.926 52.3317C238.02 51.5713 238.072 50.8109 238.072 50.0609C238.072 48.9515 237.915 47.7171 237.613 46.3525C237.306 44.9931 236.749 43.9306 235.947 43.165C235.639 42.8629 235.082 42.5609 234.28 42.2692Z" fill="#2B2D42"/>
<path d="M264.246 33.79C265.09 33.5817 266.121 33.4775 267.33 33.4775C267.59 33.4775 268.189 33.4931 269.121 33.5192C270.049 33.5504 271.023 33.7431 272.038 34.1025C272.996 34.4515 274.049 35.1806 275.205 36.29C276.465 37.5556 277.236 38.7692 277.517 39.9358C277.793 41.0921 277.934 43.5817 277.934 47.415C277.976 53.3629 278.049 57.415 278.163 59.5817C278.205 60.7483 278.226 61.7067 278.226 62.4567C278.226 63.165 278.194 63.7015 278.142 64.0608C278.101 64.4098 277.877 64.7848 277.476 65.1858C276.361 66.3942 274.851 67.0713 272.934 67.2275C272.736 67.2275 272.538 67.2275 272.33 67.2275C270.621 67.2275 269.309 66.4254 268.392 64.8108C268.085 64.2015 267.898 63.4463 267.83 62.54C267.757 61.6233 267.694 59.0296 267.642 54.7483C267.642 49.9983 267.601 47.0817 267.517 45.9983C267.444 44.915 267.314 44.1754 267.121 43.7692C266.757 43.1754 266.377 42.7483 265.976 42.4983C265.627 42.29 265.023 42.1858 264.163 42.1858C264.007 42.1858 263.611 42.2015 262.976 42.2275C262.351 42.2588 261.736 42.3942 261.142 42.6442C261.085 42.6858 261.028 42.7067 260.976 42.7067C260.017 43.165 259.444 43.8004 259.267 44.6025C259.101 45.4098 258.965 48.3317 258.871 53.3733C258.871 53.8317 258.871 54.1858 258.871 54.4358C258.757 60.4358 258.58 63.7171 258.33 64.2692C257.924 65.1858 257.319 65.9358 256.517 66.5192C255.71 67.0869 254.83 67.3733 253.871 67.3733C252.856 67.3733 251.871 66.9723 250.913 66.165C249.955 65.3629 249.273 64.4306 248.871 63.3733C248.773 62.8629 248.726 60.9671 248.726 57.6858C248.726 56.5921 248.726 55.3317 248.726 53.915C248.726 52.5556 248.726 51.29 248.726 50.1233C248.726 43.3213 248.371 38.7067 247.663 36.29L247.142 34.54L248.663 34.2483C249.621 33.9983 250.705 33.8733 251.913 33.8733C252.106 33.8733 252.309 33.8733 252.517 33.8733C254.986 33.8733 256.83 34.4515 258.038 35.6025L258.788 36.29L260.684 35.3108C261.892 34.6442 263.08 34.139 264.246 33.79Z" fill="#2B2D42"/>
<path d="M301.447 17.8942C302.057 17.8525 302.661 17.8317 303.26 17.8317C304.427 17.8317 305.739 17.9879 307.197 18.29C308.656 18.5817 309.786 19.0817 310.593 19.79C311.26 20.3473 311.624 20.764 311.697 21.04C311.765 21.3213 311.802 21.5348 311.802 21.6859C311.802 22.0348 311.677 22.54 311.427 23.2067C311.177 23.8629 311.02 25.2484 310.968 27.3734C310.927 29.4879 310.874 35.1546 310.822 44.3734C310.822 53.7067 310.791 59.3734 310.739 61.3734C310.697 63.3629 310.552 64.5817 310.302 65.04C309.895 65.6963 309.302 66.2223 308.51 66.6234C307.729 67.0244 307.062 67.2275 306.51 67.2275C306.312 67.2275 306.015 67.1859 305.614 67.1025C305.208 67.0296 304.624 66.7484 303.864 66.2484C303.114 65.7379 302.557 65.2015 302.197 64.6442L301.677 63.7484L301.156 64.3525C300.89 64.7015 300.031 65.2588 298.572 66.0192C296.406 67.0713 294.312 67.6025 292.302 67.6025C290.479 67.6025 288.244 66.9359 285.593 65.6025C282.953 64.2692 281.156 61.3317 280.197 56.79C279.89 55.3317 279.739 53.79 279.739 52.165C279.739 51.3629 279.812 50.1182 279.968 48.4359C280.119 46.7432 280.598 45.0609 281.406 43.3942C281.958 42.2848 282.927 41.04 284.302 39.665C285.687 38.2796 286.916 37.3265 287.989 36.8109C289.697 36.0088 291.182 35.5817 292.447 35.54C293.708 35.4879 294.468 35.4567 294.718 35.4567C296.578 35.4567 298.14 35.7379 299.406 36.29C300.307 36.6963 300.812 36.8942 300.927 36.8942C300.968 36.8942 300.989 35.7848 300.989 33.5609C300.989 32.4515 300.989 31.0609 300.989 29.3942C300.89 26.1182 300.802 23.9515 300.718 22.8942C300.645 21.8421 300.489 20.9098 300.239 20.1025C299.989 19.3004 299.864 18.7692 299.864 18.5192C299.864 18.4098 299.885 18.29 299.927 18.165C299.979 18.04 300.489 17.9515 301.447 17.8942ZM299.489 44.1442C298.473 43.8004 297.411 43.6234 296.302 43.6234C296.244 43.6234 295.89 43.639 295.239 43.665C294.583 43.6963 293.885 43.8838 293.135 44.2275C291.812 44.8421 290.833 45.8004 290.197 47.1025C289.572 48.4098 289.26 49.8734 289.26 51.4984C289.26 51.7484 289.26 51.9984 289.26 52.2484C289.369 54.3213 289.906 55.9463 290.864 57.1234C291.822 58.3057 293.104 58.9984 294.718 59.2067C294.968 59.264 295.218 59.29 295.468 59.29C297.036 59.29 298.52 58.5817 299.927 57.165L300.989 56.04V44.6025L299.489 44.1442Z" fill="#2B2D42"/>
<path d="M325.652 33.8734C326.913 33.665 328.121 33.5609 329.277 33.5609C330.137 33.5609 330.996 33.6129 331.861 33.7067C336.137 34.3734 339.137 36.415 340.861 39.8317C342.069 42.1546 342.673 44.3004 342.673 46.2692C342.673 46.6754 342.579 47.5504 342.402 48.8942C342.22 50.2275 341.225 51.1754 339.423 51.7275C337.449 52.3265 333.387 52.6234 327.236 52.6234H322.09L322.402 54.2067C322.652 55.2223 322.902 55.9567 323.152 56.415C323.402 56.8629 323.85 57.3629 324.507 57.915C325.824 59.1234 327.517 59.7275 329.59 59.7275C329.934 59.7275 330.309 59.7067 330.715 59.665C333.283 59.3629 335.678 58.3004 337.902 56.4775L340.027 54.7484L340.632 55.6442C341.184 56.6598 341.465 57.6963 341.465 58.7484C341.465 58.9567 341.434 59.415 341.382 60.1234C341.324 60.8213 340.845 61.6234 339.944 62.54C338.428 64.2484 336.512 65.3838 334.194 65.9359C331.871 66.4931 329.882 66.7692 328.215 66.7692C326.949 66.7692 325.257 66.5817 323.132 66.2067C321.017 65.8317 319.184 64.8317 317.632 63.2067C315.908 61.5556 314.757 59.5713 314.173 57.2484C313.6 54.9306 313.319 52.8317 313.319 50.9567C313.319 49.8056 313.392 48.6234 313.548 47.415C314.048 44.2379 315.053 41.5817 316.569 39.4567C318.694 36.4306 321.72 34.5713 325.652 33.8734ZM332.298 41.665C331.642 41.2067 330.59 40.9515 329.132 40.8942C328.882 40.8942 328.652 40.8942 328.444 40.8942C327.579 40.8942 326.861 40.9879 326.277 41.165C325.704 41.3473 325.095 41.7379 324.444 42.3317C324.038 42.7379 323.579 43.4463 323.069 44.4567C322.569 45.4723 322.319 46.2015 322.319 46.6442C322.319 46.9515 322.35 47.1338 322.423 47.1859C322.507 47.2275 322.595 47.2484 322.694 47.2484C322.788 47.2484 322.944 47.2275 323.152 47.1859C324.262 46.9775 327.262 46.6754 332.152 46.2692C333.204 46.1754 333.845 46.0921 334.069 46.0192C334.303 45.9359 334.423 45.7223 334.423 45.3734C334.423 44.8213 334.194 44.165 333.736 43.415C333.288 42.6546 332.809 42.0713 332.298 41.665Z" fill="#2B2D42"/>
<path d="M361.885 21.8317C362.437 21.639 363.197 21.54 364.155 21.54C364.249 21.54 364.614 21.5556 365.239 21.5817C365.874 21.5973 366.468 21.7379 367.01 21.9983C367.718 22.29 368.286 22.7796 368.718 23.4567C369.145 24.139 369.666 25.415 370.28 27.29C370.931 29.1546 372.869 34.4567 376.093 43.2067C379.327 51.9567 381.551 57.9254 382.76 61.1025L384.426 65.415L383.739 65.9358C383.082 66.4931 381.822 66.7692 379.947 66.7692C379.39 66.7692 378.812 66.7431 378.218 66.6858C376.301 66.5504 374.947 66.0296 374.155 65.1233C373.374 64.2067 372.51 62.1129 371.551 58.8317L370.572 55.4983L357.03 55.6442L355.822 59.2067C354.916 61.6233 354.343 63.1129 354.093 63.665C353.728 64.3213 353.244 64.915 352.635 65.4567C352.036 65.9879 351.457 66.3265 350.905 66.4775C350.249 66.6754 349.322 66.7692 348.114 66.7692C347.957 66.7692 347.478 66.7588 346.676 66.7275C345.869 66.7015 345.161 66.5608 344.551 66.3108L343.572 65.9358L344.093 64.3525C344.145 64.2015 344.301 63.7848 344.551 63.1025C344.801 62.4254 345.077 61.6963 345.385 60.915C345.687 60.1233 345.968 59.4046 346.218 58.7483C347.426 55.5296 348.89 51.5504 350.614 46.8108C352.223 42.2171 353.832 37.8473 355.447 33.7067C356.707 30.54 357.562 28.0504 358.01 26.2275C358.411 24.6598 358.718 23.7275 358.926 23.4358C359.426 22.8265 360.411 22.29 361.885 21.8317ZM367.635 47.9358C367.635 47.9358 367.635 47.9098 367.635 47.8525C367.635 47.3004 367.02 45.0817 365.801 41.2067L363.76 34.7067L361.655 41.0608C360.239 45.2431 359.499 47.4879 359.447 47.79C359.447 48.04 360.76 48.165 363.385 48.165C366.01 48.165 367.426 48.0921 367.635 47.9358Z" fill="#2B2D42"/>
<path d="M396.278 17.1442C396.736 17.0504 397.194 16.9984 397.653 16.9984C398.512 16.9984 399.392 17.2015 400.299 17.6025C401.158 18.0088 401.871 18.5348 402.444 19.1859C403.028 19.8421 403.319 20.4254 403.319 20.9359C403.319 21.7431 402.132 23.0556 399.757 24.8734C397.392 26.6806 395.33 27.8421 393.569 28.3525C392.653 28.6442 391.746 28.8213 390.861 28.8734C389.986 28.9306 389.392 28.9567 389.09 28.9567C388.34 28.9567 387.913 28.8838 387.819 28.7275C387.819 28.7275 387.819 28.7015 387.819 28.6442C387.819 28.3942 388.22 27.5765 389.028 26.1859C389.83 24.8004 390.741 23.3734 391.757 21.915C393.674 19.04 395.179 17.4515 396.278 17.1442ZM386.528 33.79C387.278 33.639 388.59 33.5348 390.465 33.4775C392.017 33.4775 393.174 33.6129 393.924 33.8734C394.684 34.1234 395.345 34.5765 395.903 35.2275C396.205 35.5765 396.371 35.889 396.403 36.165C396.429 36.4463 396.444 36.6859 396.444 36.8942C396.444 37.4931 396.387 38.6234 396.278 40.29C396.179 42.7223 396.054 47.79 395.903 55.4984C395.804 59.7379 395.715 62.3004 395.632 63.1859C395.559 64.0609 395.371 64.7275 395.069 65.1859C394.413 66.0504 393.7 66.5817 392.924 66.79C392.142 66.9879 391.554 67.0817 391.153 67.0817C390.444 67.0817 389.783 66.9306 389.174 66.6234C388.517 66.264 387.913 65.6338 387.361 64.7275L386.528 63.3734V52.0192C386.528 45.2692 386.496 41.2015 386.444 39.8109C386.403 38.4254 386.226 37.2223 385.924 36.2067L385.319 34.1025L386.528 33.79Z" fill="#2B2D42"/>
<mask id="mask0_184_1054" style="mask-type:luminance" maskUnits="userSpaceOnUse" x="24" y="25" width="58" height="57">
<path d="M24.2344 25.4583H82V82H24.2344V25.4583Z" fill="white"/>
</mask>
<g mask="url(#mask0_184_1054)">
<path d="M53.5365 25.4948C38.0729 25.4948 25.4948 38.0729 25.4948 53.5365C25.4948 68.9948 38.0729 81.5781 53.5365 81.5781H79.0313C80.4375 81.5781 81.5781 80.4375 81.5781 79.0313V53.5365C81.5781 38.0729 68.9948 25.4948 53.5365 25.4948Z" fill="#2B2D42"/>
</g>
<path d="M71.3802 33.1406C71.3802 32.7135 71.3281 32.2969 71.3125 31.875C66.4687 27.8906 60.2812 25.4948 53.5364 25.4948C38.0729 25.4948 25.4948 38.0729 25.4948 53.5364C25.4948 60.3073 27.9114 66.526 31.9218 71.3802H33.1406C54.2291 71.3802 71.3802 54.2292 71.3802 33.1406Z" fill="#0E0F1C"/>
<mask id="mask1_184_1054" style="mask-type:luminance" maskUnits="userSpaceOnUse" x="0" y="0" width="67" height="67">
<path d="M0 0H66.901V66.7917H0V0Z" fill="white"/>
</mask>
<g mask="url(#mask1_184_1054)">
<path d="M33.1406 0C14.8698 0 0 14.8698 0 33.1406V63.7344C0 65.1406 1.14063 66.2813 2.55208 66.2813H33.1406C51.4167 66.2813 66.2813 51.4167 66.2813 33.1406C66.2813 14.8698 51.4167 0 33.1406 0Z" fill="#2B2D42"/>
</g>
</svg>
