<svg width="35" height="35" viewBox="0 0 35 35" fill="none" xmlns="http://www.w3.org/2000/svg">
<circle cx="17.5" cy="17.5" r="17.5" fill="#545569"/>
<path d="M18 27C23.5228 27 28 22.5228 28 17C28 11.4772 23.5228 7 18 7C12.4772 7 8 11.4772 8 17C8 22.5228 12.4772 27 18 27Z" stroke="#F9FBF2" stroke-width="2" stroke-linecap="round" stroke-linejoin="round"/>
<path d="M15.0898 14C15.3249 13.3317 15.789 12.7681 16.3998 12.4091C17.0106 12.0501 17.7287 11.9189 18.427 12.0387C19.1253 12.1585 19.7587 12.5215 20.2149 13.0635C20.6712 13.6055 20.9209 14.2915 20.9198 15C20.9198 17 17.9198 18 17.9198 18" stroke="#F9FBF2" stroke-width="2" stroke-linecap="round" stroke-linejoin="round"/>
<path d="M18 22H18.01" stroke="#F9FBF2" stroke-width="2" stroke-linecap="round" stroke-linejoin="round"/>
</svg>
