<svg width="35" height="35" viewBox="0 0 35 35" fill="none" xmlns="http://www.w3.org/2000/svg">
<circle cx="17.5" cy="17.5" r="17.5" fill="#F9FBF2"/>
<path d="M18 27C23.5228 27 28 22.5228 28 17C28 11.4772 23.5228 7 18 7C12.4772 7 8 11.4772 8 17C8 22.5228 12.4772 27 18 27Z" stroke="#545569" stroke-width="2" stroke-linecap="round" stroke-linejoin="round"/>
<path d="M15.0901 14C15.3252 13.3317 15.7892 12.7681 16.4 12.4091C17.0108 12.0501 17.729 11.9189 18.4273 12.0387C19.1255 12.1585 19.7589 12.5215 20.2152 13.0635C20.6714 13.6055 20.9211 14.2915 20.9201 15C20.9201 17 17.9201 18 17.9201 18" stroke="#545569" stroke-width="2" stroke-linecap="round" stroke-linejoin="round"/>
<path d="M18 22H18.01" stroke="#545569" stroke-width="2" stroke-linecap="round" stroke-linejoin="round"/>
</svg>
