<svg width="61" height="61" viewBox="0 0 61 61" fill="none" xmlns="http://www.w3.org/2000/svg">
<circle cx="30.1794" cy="30.1794" r="30.1794" fill="#545569"/>
<path d="M41.751 43.0328V40.0149C41.751 38.4141 41.1151 36.8788 39.9832 35.7469C38.8512 34.615 37.316 33.979 35.7152 33.979H23.6434C22.0426 33.979 20.5074 34.615 19.3754 35.7469C18.2435 36.8788 17.6075 38.4141 17.6075 40.0149V43.0328" stroke="#F9FBF2" stroke-width="3.01794" stroke-linecap="round" stroke-linejoin="round"/>
<path d="M29.6793 27.9432C33.0128 27.9432 35.7152 25.2408 35.7152 21.9073C35.7152 18.5738 33.0128 15.8714 29.6793 15.8714C26.3458 15.8714 23.6434 18.5738 23.6434 21.9073C23.6434 25.2408 26.3458 27.9432 29.6793 27.9432Z" stroke="#F9FBF2" stroke-width="3.01794" stroke-linecap="round" stroke-linejoin="round"/>
</svg>
